<svg xmlns="http://www.w3.org/2000/svg" viewBox="0 0 223 232.5"><defs><style>.cls-1{fill:#f35b5b;}.cls-2{fill:#4ecf75;}</style></defs><title>logo</title><g id="Ebene_2" data-name="Ebene 2"><g id="Ebene_1-2" data-name="Ebene 1"><path class="cls-1" d="M147,25V202.5l-70,30V43.31A10.21,10.21,0,0,1,86.28,33,10,10,0,0,1,97,43V60.14a2.5,2.5,0,0,0,3.48,2.3h0a2.5,2.5,0,0,0,1.52-2.3V33.31A10.21,10.21,0,0,1,111.28,23,10,10,0,0,1,122,33V49.42a2.5,2.5,0,0,0,3.48,2.3h0a2.5,2.5,0,0,0,1.52-2.3V25.31A10.21,10.21,0,0,1,136.28,15,10,10,0,0,1,147,25Z"/><path class="cls-2" d="M147,10V187.5l-70,30V28.31A10.21,10.21,0,0,1,86.28,18,10,10,0,0,1,97,28V45.14a2.5,2.5,0,0,0,3.48,2.3h0a2.5,2.5,0,0,0,1.52-2.3V18.31A10.21,10.21,0,0,1,111.28,8,10,10,0,0,1,122,18V34.42a2.5,2.5,0,0,0,3.48,2.3h0a2.5,2.5,0,0,0,1.52-2.3V10.31A10.21,10.21,0,0,1,136.28,0,10,10,0,0,1,147,10Z"/><path class="cls-1" d="M62,68H72a0,0,0,0,1,0,0V88a0,0,0,0,1,0,0H62A10,10,0,0,1,52,78v0A10,10,0,0,1,62,68Z"/><path class="cls-1" d="M152,68h10a10,10,0,0,1,10,10v0a10,10,0,0,1-10,10H152a0,0,0,0,1,0,0V68A0,0,0,0,1,152,68Z"/><rect class="cls-2" x="177" y="28" width="20" height="100" rx="10" ry="10"/><rect class="cls-2" y="53" width="20" height="50" rx="10" ry="10"/><rect class="cls-2" x="27" y="28" width="20" height="100" rx="10" ry="10"/><rect class="cls-2" x="203" y="53" width="20" height="50" rx="10" ry="10"/></g></g></svg>